<svg width="1374" height="100" viewBox="0 0 1374 100" fill="none" xmlns="http://www.w3.org/2000/svg">
<path d="M0.910156 98.0001H29.226V73.0822H67.1692C104.971 73.0822 113.607 67.4191 113.607 38.6785V36.1301C113.607 7.38954 104.971 1.72639 67.1692 1.72639H0.910156V98.0001ZM29.226 51.5622V22.9632H62.3555C83.5923 22.9632 85.5744 24.8038 85.5744 36.6964V37.9706C85.5744 49.7217 83.5923 51.5622 62.3555 51.5622H29.226Z" fill="white"/>
<path d="M128.663 98.0001H156.979V71.2417H185.578C212.195 71.2417 215.31 73.2238 215.31 90.2133V98.0001H243.625V83.2759C243.625 66.2864 240.511 62.4638 226.777 60.3401V59.7738C239.095 56.9422 243.625 49.4385 243.625 34.4311V31.0332C243.625 8.80533 235.838 1.72639 204.125 1.72639H128.663V98.0001ZM156.979 50.288V22.9632H192.657C212.195 22.9632 214.743 24.8038 214.743 35.7054V37.4043C214.743 48.4475 212.336 50.288 192.657 50.288H156.979Z" fill="white"/>
<path d="M323.099 99.1328H327.488C382.562 99.1328 390.49 94.0359 390.49 51.2791V48.4475C390.49 5.6906 382.562 0.59375 327.488 0.59375H323.099C268.025 0.59375 260.096 5.6906 260.096 48.4475V51.2791C260.096 93.8944 268.025 99.1328 323.099 99.1328ZM324.09 76.9049C290.677 76.9049 288.978 74.7812 288.978 50.5712V49.0138C288.978 24.379 290.677 22.3969 324.09 22.3969H326.497C359.909 22.3969 361.608 24.379 361.608 49.0138V50.5712C361.608 74.7812 359.909 76.9049 326.497 76.9049H324.09Z" fill="white"/>
<path d="M450.279 99.1328H454.668C491.903 99.1328 499.831 93.328 499.831 64.3043V1.72639H471.232V62.4638C471.232 75.0643 469.109 76.9049 453.393 76.9049H450.987C432.865 76.9049 430.741 75.4891 430.741 59.9154V56.8006H402.85V65.5785C402.85 93.8944 409.079 99.1328 450.279 99.1328Z" fill="white"/>
<path d="M519.25 98.0001H625.009V76.0554H547.566V59.4906H619.346V39.3864H547.566V22.9632H623.31V1.72639H519.25V98.0001Z" fill="white"/>
<path d="M700.814 99.1328H705.203C753.765 99.1328 761.127 91.6291 761.127 66.9943V61.1896H733.377V62.747C733.377 74.498 731.395 76.9049 704.212 76.9049H701.805C669.667 76.9049 667.26 75.0643 667.26 50.7127V49.0138C667.26 24.0959 669.667 22.3969 701.805 22.3969H704.212C730.546 22.3969 732.245 25.7948 732.245 35.139V37.1211H759.994V32.5906C759.994 6.54007 752.774 0.59375 705.203 0.59375H700.814C646.731 0.59375 638.378 6.68165 638.378 48.4475V51.2791C638.378 93.328 647.439 99.1328 700.814 99.1328Z" fill="white"/>
<path d="M810.266 98.0001H838.865V23.5296H880.347V1.72639H768.783V23.5296H810.266V98.0001Z" fill="white"/>
<path d="M939.839 98.0001H1006.38C1061.17 98.0001 1067.83 91.7707 1067.83 51.2791V48.4475C1067.83 6.96481 1060.04 1.72639 1006.38 1.72639H939.839V98.0001ZM968.438 75.6307V23.5296H1003.97C1036.54 23.5296 1039.37 25.7948 1039.37 48.7306V50.4296C1039.37 72.7991 1036.54 75.6307 1003.97 75.6307H968.438Z" fill="white"/>
<path d="M1073.59 98.0001H1104.18L1112.95 80.7275H1173.69L1182.61 98.0001H1213.48L1160.95 1.72639H1125.84L1073.59 98.0001ZM1123.15 60.6233L1142.83 21.9722H1143.54L1163.36 60.6233H1123.15Z" fill="white"/>
<path d="M1246.68 98.0001H1281.37L1333.89 1.72639H1302.04L1264.52 73.2238H1264.1L1226.86 1.72639H1194.86L1246.68 98.0001Z" fill="white"/>
<path d="M1344.94 98.0001H1373.68V1.72639H1344.94V98.0001Z" fill="white"/>
</svg>
