<svg width="1201" height="278" viewBox="0 0 1201 278" fill="none" xmlns="http://www.w3.org/2000/svg">
<g clip-path="url(#clip0_272_2553)">
<path d="M204.106 81.2127L279.555 39.1853L279.617 120.841L221.168 153.395C181.301 175.604 158.328 204.733 149.043 230.6C139.761 256.457 141.126 271.286 140.828 277.749C140.828 236.582 140.963 224.271 140.963 189.609C140.963 181.068 141.945 171.672 143.097 167.174C143.097 167.174 153.02 109.671 204.106 81.2127Z" fill="#9573F5"/>
<path d="M140.794 191.386L140.833 277.749L69.4517 238.098L69.4206 171.195C69.3999 125.562 55.1178 91.3215 37.0302 70.6303C18.9478 49.9469 5.33155 43.6958 -0.170898 40.2917C35.4551 59.4104 44.8798 64.5683 75.2598 80.8891C82.7855 84.9305 92.5832 92.6246 95.951 95.8188C95.951 95.8188 140.769 132.909 140.794 191.386Z" fill="#6837F1"/>
<path d="M203.987 81.2129C234.442 64.4802 256.563 51.9365 279.552 39.1855C273.76 42.1103 261.403 50.6205 234.139 55.2576C206.865 59.8974 168.527 58.8974 129.02 35.0146L71.1019 0L-0.170898 40.3021L77.7545 82.1274C97.1634 93.7774 145.621 113.279 203.987 81.2129Z" fill="#D2C3FB"/>
<path d="M445.979 107.351H419.813V149.48C419.813 155.498 420.971 159.819 423.286 162.442C425.756 164.911 430.002 166.146 436.022 166.146C438.955 166.146 442.274 165.915 445.979 165.452V191.608C438.415 193.306 431.854 194.155 426.297 194.155C414.255 194.155 404.916 190.605 398.277 183.507C391.794 176.254 388.552 165.452 388.552 151.1V107.351H371.185V83.2775H388.552V55.7319H419.813V83.2775H445.979V107.351Z" fill="white"/>
<path d="M513.715 79.5739C523.441 79.5739 532.395 81.58 540.576 85.5923C548.913 89.6045 555.628 96.0859 560.722 105.036C565.817 113.987 568.364 125.329 568.364 139.063C568.364 142.304 568.287 144.773 568.132 146.471H489.864C491.099 153.415 493.724 158.97 497.737 163.137C501.751 167.303 507.231 169.387 514.178 169.387C524.521 169.387 531.468 164.911 535.019 155.961H566.512C563.578 168.769 557.326 178.491 547.755 185.127C538.338 191.763 527.069 195.08 513.947 195.08C503.912 195.08 494.65 193.074 486.159 189.062C477.669 184.896 470.799 178.491 465.55 169.85C460.301 161.053 457.677 150.097 457.677 136.98C457.677 124.017 460.301 113.292 465.55 104.805C470.799 96.163 477.669 89.836 486.159 85.8238C494.65 81.6572 503.835 79.5739 513.715 79.5739ZM513.484 105.268C506.691 105.268 501.365 107.351 497.506 111.518C493.646 115.53 491.099 121.008 489.864 127.952H536.871C534.401 112.829 526.606 105.268 513.484 105.268Z" fill="white"/>
<path d="M649.458 80.0369C661.191 80.0369 670.144 83.7405 676.319 91.1477C682.494 98.555 685.582 108.74 685.582 121.703V191.377H654.321V129.341C654.321 122.397 652.7 117.073 649.458 113.369C646.371 109.666 641.739 107.814 635.564 107.814C629.389 107.814 624.604 109.743 621.207 113.601C617.966 117.459 616.345 122.706 616.345 129.341V191.377H585.084V83.2775H616.345V98.092C619.123 93.4625 623.292 89.2959 628.849 85.5923C634.561 81.8887 641.431 80.0369 649.458 80.0369Z" fill="white"/>
<path d="M780.512 50.8709H812.005V191.377H780.743V179.572C777.038 184.355 772.33 188.059 766.618 190.682C761.061 193.306 754.886 194.618 748.093 194.618C739.139 194.618 731.189 192.457 724.242 188.136C717.295 183.661 711.892 177.103 708.033 168.461C704.173 159.819 702.244 149.48 702.244 137.443C702.244 119.233 706.412 105.113 714.748 95.0828C723.239 85.0522 734.354 80.0369 748.093 80.0369C754.886 80.0369 761.061 81.3486 766.618 83.972C772.176 86.5954 776.807 90.299 780.512 95.0828V50.8709ZM758.05 168.229C766.232 168.229 772.33 165.374 776.344 159.665C780.512 153.955 782.596 146.548 782.596 137.443C782.596 128.338 780.512 120.931 776.344 115.221C772.33 109.357 766.232 106.425 758.05 106.425C749.868 106.425 743.848 109.203 739.988 114.758C736.129 120.314 734.199 127.875 734.199 137.443C734.199 147.011 736.129 154.572 739.988 160.128C743.848 165.529 749.868 168.229 758.05 168.229Z" fill="white"/>
<path d="M884.514 79.5739C894.24 79.5739 903.194 81.58 911.376 85.5923C919.712 89.6045 926.427 96.0859 931.522 105.036C936.616 113.987 939.163 125.329 939.163 139.063C939.163 142.304 939.086 144.773 938.932 146.471H860.663C861.898 153.415 864.523 158.97 868.537 163.137C872.55 167.303 878.031 169.387 884.978 169.387C895.321 169.387 902.268 164.911 905.818 155.961H937.311C934.378 168.769 928.125 178.491 918.554 185.127C909.137 191.763 897.868 195.08 884.746 195.08C874.712 195.08 865.449 193.074 856.958 189.062C848.468 184.896 841.598 178.491 836.349 169.85C831.101 161.053 828.476 150.097 828.476 136.98C828.476 124.017 831.101 113.292 836.349 104.805C841.598 96.163 848.468 89.836 856.958 85.8238C865.449 81.6572 874.634 79.5739 884.514 79.5739ZM884.283 105.268C877.49 105.268 872.164 107.351 868.305 111.518C864.446 115.53 861.898 121.008 860.663 127.952H907.671C905.201 112.829 897.405 105.268 884.283 105.268Z" fill="white"/>
<path d="M986.912 102.027C990.463 94.4655 994.708 88.9101 999.648 85.3608C1004.59 81.8115 1010.38 80.0369 1017.02 80.0369C1019.79 80.0369 1023.27 80.4227 1027.44 81.1943V113.832H1026.51C1022.03 111.981 1017.63 111.055 1013.31 111.055C1005.75 111.055 999.494 113.755 994.554 119.156C989.614 124.403 987.144 131.733 987.144 141.147V191.377H955.883V83.2775H986.912V102.027Z" fill="white"/>
<path d="M1072.9 191.377H1041.64V50.6394H1072.9V191.377Z" fill="white"/>
<path d="M1142.4 157.581L1166.02 83.2775H1199.83L1145.18 228.645H1110.91L1126.66 192.997L1085.44 83.2775H1119.25L1142.4 157.581Z" fill="white"/>
</g>
<defs>
<clipPath id="clip0_272_2553">
<rect width="1200" height="277.749" fill="white" transform="translate(0.121094)"/>
</clipPath>
</defs>
</svg>
